<svg height="702" width="1277" xmlns="http://www.w3.org/2000/svg"><g stroke="#2d2d2d"><g fill="#ffeba2"><path d="m135.72732 184.36361h550.90911v37.27273h-550.90911z"/><path d="m85.72732 387.99998h297.27274v32.72727h-297.27274z"/><path d="m89.36368 430.72726h218.18183v22.72727h-218.18183z"/><path d="m94.81823 470.72726h196.36364v28.18182h-196.36364z"/><path d="m671.18189 286.1818h55.45455v38.18182h-55.45455z"/><path d="m673.90916 333.45453h57.27273v32.72727h-57.27273z"/><path d="m155.72732 506.18181h100v28.18182h-100z"/><path d="m345.72733 505.27272h110.90909v25.45455h-110.90909z"/></g><path d="m320.27278 558.90908h93.63637v37.27273h-93.63637z" fill="#ff7e7e"/><path d="m630.27279 561.63635h116.36364v32.72727h-116.36364z" fill="#ff7e7e"/><path d="m314.81824 630.72727h109.09091v34.54546h-109.09091z" fill="#ffeba2"/><path d="m451.18188 626.18181h120v34.54546h-120z" fill="#ffeba2"/></g></svg>