<svg height="702" width="1277" xmlns="http://www.w3.org/2000/svg"><path fill="#FFEBA2" stroke="#2D2D2D" d="M135.727 184.364H686.636V221.637H135.727z"/><path fill="#FFEBA2" stroke="#2D2D2D" d="M85.727 388H383V420.727H85.727z"/><path fill="#FFEBA2" stroke="#2D2D2D" d="M89.364 430.727H307.546V453.45399999999995H89.364z"/><path fill="#FFEBA2" stroke="#2D2D2D" d="M94.818 470.727H291.182V498.909H94.818z"/><g class="qshape"><path class="qshape" fill="#FF7E7E" stroke="#2D2D2D" d="M671.182 286.182H726.6370000000001V324.36400000000003H671.182z"/><path class="qshape" fill="#FF7E7E" stroke="#2D2D2D" d="M673.909 333.455H731.182V366.18199999999996H673.909z"/></g><path fill="#FFEBA2" stroke="#2D2D2D" d="M155.727 506.182H255.727V534.364H155.727z"/><path fill="#FFEBA2" stroke="#2D2D2D" d="M345.727 505.273H456.63599999999997V530.7280000000001H345.727z"/><path fill="#FFEBA2" stroke="#2D2D2D" d="M320.273 558.909H413.909V596.182H320.273z"/><path fill="#FFEBA2" stroke="#2D2D2D" d="M630.273 561.636H746.6370000000001V594.3629999999999H630.273z"/><g fill="#FFEBA2" stroke="#2D2D2D"><path d="M314.818 630.727H423.909V665.2719999999999H314.818z"/><path d="M451.182 626.182H571.182V660.727H451.182z"/></g></svg>