<svg height="1248" width="1193" xmlns="http://www.w3.org/2000/svg"><path fill="#FFEBA2" stroke="#2D2D2D" d="M153.06 177.306H197.705V206.32600000000002H153.06z"/><path fill="#FFEBA2" stroke="#2D2D2D" d="M726.754 177.306H766.9350000000001V204.09300000000002H726.754z"/><path fill="#FFEBA2" stroke="#2D2D2D" d="M165.338 231.996H227.84199999999998V264.36400000000003H165.338z"/><path fill="#FFEBA2" stroke="#2D2D2D" d="M227.841 276.642H280.299V334.681H227.841z"/><path fill="#FFEBA2" stroke="#2D2D2D" d="M393.03 269.945H454.417V329.1H393.03z"/><path fill="#FFEBA2" stroke="#2D2D2D" stroke-dasharray="null" stroke-linecap="null" stroke-linejoin="null" d="M734.567 231.996H826.09V265.48H734.567z"/><path fill="#FFEBA2" stroke="#2D2D2D" stroke-dasharray="null" stroke-linecap="null" stroke-linejoin="null" d="M797.071 275.526H879.665V336.913H797.071z"/><path fill="#FFEBA2" stroke="#2D2D2D" stroke-dasharray="null" stroke-linecap="null" stroke-linejoin="null" d="M986.814 268.829H1076.105V333.565H986.814z"/><path fill="#FFEBA2" stroke="#2D2D2D" stroke-dasharray="null" stroke-linecap="null" stroke-linejoin="null" d="M164.222 378.21H391.914V413.926H164.222z"/><path fill="#FFEBA2" stroke="#2D2D2D" stroke-dasharray="null" stroke-linecap="null" stroke-linejoin="null" d="M221.145 422.856H269.139V454.108H221.145z"/><path fill="#FFEBA2" stroke="#2D2D2D" stroke-dasharray="null" stroke-linecap="null" stroke-linejoin="null" d="M733.451 382.675H994.627V416.159H733.451z"/><path fill="#FFEBA2" stroke="#2D2D2D" stroke-dasharray="null" stroke-linecap="null" stroke-linejoin="null" d="M792.606 421.74H859.574V451.87600000000003H792.606z"/><path fill="#FFEBA2" stroke="#2D2D2D" stroke-dasharray="null" stroke-linecap="null" stroke-linejoin="null" d="M194.357 496.521H419.817V551.212H194.357z"/><path fill="#FFEBA2" stroke="#2D2D2D" stroke-dasharray="null" stroke-linecap="null" stroke-linejoin="null" d="M234.538 557.908H285.88V613.715H234.538z"/><path fill="#FFEBA2" stroke="#2D2D2D" stroke-dasharray="null" stroke-linecap="null" stroke-linejoin="null" d="M766.935 494.288H1019.182V546.746H766.935z"/><path fill="#FFEBA2" stroke="#2D2D2D" stroke-dasharray="null" stroke-linecap="null" stroke-linejoin="null" d="M807.116 559.024H883.013V611.482H807.116z"/><path fill="#FFEBA2" stroke="#2D2D2D" stroke-dasharray="null" stroke-linecap="null" stroke-linejoin="null" d="M211.099 694.077H293.693V725.329H211.099z"/><path fill="#FFEBA2" stroke="#2D2D2D" stroke-dasharray="null" stroke-linecap="null" stroke-linejoin="null" d="M216.68 729.793H303.73900000000003V759.929H216.68z"/><path fill="#FFEBA2" stroke="#2D2D2D" stroke-dasharray="null" stroke-linecap="null" stroke-linejoin="null" d="M220.028 764.393H312.667V797.8770000000001H220.028z"/><path fill="#FFEBA2" stroke="#2D2D2D" stroke-dasharray="null" stroke-linecap="null" stroke-linejoin="null" d="M214.448 803.458H313.784V832.478H214.448z"/><path fill="#FFEBA2" stroke="#2D2D2D" stroke-dasharray="null" stroke-linecap="null" stroke-linejoin="null" d="M216.68 839.175H333.874V868.1949999999999H216.68z"/><path fill="#FFEBA2" stroke="#2D2D2D" stroke-dasharray="null" stroke-linecap="null" stroke-linejoin="null" d="M212.215 874.891H338.338V901.678H212.215z"/><path fill="#FFEBA2" stroke="#2D2D2D" stroke-dasharray="null" stroke-linecap="null" stroke-linejoin="null" d="M784.793 695.193H883.013V718.632H784.793z"/><path fill="#FFEBA2" stroke="#2D2D2D" stroke-dasharray="null" stroke-linecap="null" stroke-linejoin="null" d="M790.374 726.445H895.291V757.697H790.374z"/><path fill="#FFEBA2" stroke="#2D2D2D" stroke-dasharray="null" stroke-linecap="null" stroke-linejoin="null" d="M789.258 763.277H894.1750000000001V794.529H789.258z"/><path fill="#FFEBA2" stroke="#2D2D2D" stroke-dasharray="null" stroke-linecap="null" stroke-linejoin="null" d="M787.026 802.342H905.336V831.362H787.026z"/><path class="qshape" fill="#FF7E7E" stroke="#2D2D2D" stroke-dasharray="null" stroke-linecap="null" stroke-linejoin="null" d="M790.374 838.058H924.3100000000001V862.6129999999999H790.374z"/><path fill="#FFEBA2" stroke="#2D2D2D" stroke-dasharray="null" stroke-linecap="null" stroke-linejoin="null" d="M784.793 868.194H936.588V898.3299999999999H784.793z"/><path fill="#FFEBA2" stroke="#2D2D2D" stroke-dasharray="null" stroke-linecap="null" stroke-linejoin="null" d="M242.351 948.556H360.661V1004.363H242.351z"/><path fill="#FFEBA2" stroke="#2D2D2D" stroke-dasharray="null" stroke-linecap="null" stroke-linejoin="null" d="M246.816 1013.292H377.404V1073.563H246.816z"/><path fill="#FFEBA2" stroke="#2D2D2D" stroke-dasharray="null" stroke-linecap="null" stroke-linejoin="null" d="M246.816 1082.492H343.92V1136.067H246.816z"/><path fill="#FFEBA2" stroke="#2D2D2D" stroke-dasharray="null" stroke-linecap="null" stroke-linejoin="null" d="M243.467 1142.764H349.5V1199.687H243.467z"/><path fill="#FFEBA2" stroke="#2D2D2D" stroke-dasharray="null" stroke-linecap="null" stroke-linejoin="null" d="M816.045 945.207H958.91V1005.478H816.045z"/><path fill="#FFEBA2" stroke="#2D2D2D" stroke-dasharray="null" stroke-linecap="null" stroke-linejoin="null" d="M816.045 1012.176H974.536V1071.3310000000001H816.045z"/><path fill="#FFEBA2" stroke="#2D2D2D" stroke-dasharray="null" stroke-linecap="null" stroke-linejoin="null" d="M821.626 1082.492H939.9359999999999V1136.067H821.626z"/><path fill="#FFEBA2" stroke="#2D2D2D" stroke-dasharray="null" stroke-linecap="null" stroke-linejoin="null" d="M814.929 1146.112H947.749V1200.803H814.929z"/></svg>