<svg height="812" width="897" xmlns="http://www.w3.org/2000/svg"><g fill="#ffeba2" stroke="#2d2d2d"><path d="m449.31575 353.26312h118.94737v23.15789h-118.94737z"/><path d="m234.57891 795.36837h37.89474v17.89474h-37.89474z"/><path d="m632.47364 530.10522h57.89474v18.94737h-57.89474z"/><path d="m711.42101 530.10522h54.73684v17.89474h-54.73684z"/><path d="m471.42101 552.21048h160v20h-160z"/><path d="m211.42102 578.52627h37.89474v17.89474h-37.89474z"/><path d="m590.36838 575.36838h57.89474v21.05263h-57.89474z"/><path d="m672.47364 578.52627h58.94737v17.89474h-58.94737z"/><path d="m273.52628 624.84206h117.89473v20h-117.89473z"/><path d="m589.31575 623.78943h41.05263v20h-41.05263z"/><path d="m292.47365 673.26311h214.73684v21.05263h-214.73684z"/><path d="m754.5789 670.10522h32.63158v24.21053h-32.63158z"/><path d="m447.21049 696.42101h44.21053v22.10526h-44.21053z"/><path d="m331.42102 717.47364h35.78947v22.10526h-35.78947z"/><path d="m290.36839 746.94732h37.89474v16.8421h-37.89474z"/><path d="m510.36838 744.84206h16.8421v22.10526h-16.8421z"/><path d="m693.52627 769.05258h36.8421v23.15789h-36.8421z"/></g></svg>