<svg height="812" width="897" xmlns="http://www.w3.org/2000/svg"><path fill="#FFEBA2" stroke="#2D2D2D" d="M705.105 77.474H741.947V97.474H705.105z"/><path fill="#FFEBA2" stroke="#2D2D2D" d="M47.211 101.684H190.36899999999997V121.684H47.211z"/><path fill="#FFEBA2" stroke="#2D2D2D" d="M449.316 353.263H568.2629999999999V376.421H449.316z"/><path fill="#FFEBA2" stroke="#2D2D2D" d="M234.579 795.368H272.474V813.263H234.579z"/><path fill="#FFEBA2" stroke="#2D2D2D" d="M632.474 530.105H690.369V549.052H632.474z"/><path fill="#FFEBA2" stroke="#2D2D2D" d="M711.421 530.105H766.158V548H711.421z"/><path fill="#FFEBA2" stroke="#2D2D2D" d="M471.421 552.21H631.421V572.21H471.421z"/><path fill="#FFEBA2" stroke="#2D2D2D" d="M211.421 578.526H249.316V596.4209999999999H211.421z"/><g fill="#FFEBA2" stroke="#2D2D2D"><path d="M590.368 575.368H648.263V596.421H590.368z"/><path d="M672.474 578.526H731.421V596.4209999999999H672.474z"/><path d="M273.526 624.842H391.421V644.842H273.526z"/><path d="M589.316 623.789H630.369V643.789H589.316z"/></g><g class="qshape"><path class="qshape" fill="#FF7E7E" stroke="#2D2D2D" d="M292.474 673.263H507.211V694.316H292.474z"/><path class="qshape" fill="#FF7E7E" stroke="#2D2D2D" d="M754.579 670.105H787.2109999999999V694.316H754.579z"/><path class="qshape" fill="#FF7E7E" stroke="#2D2D2D" d="M447.21 696.421H491.421V718.5260000000001H447.21z"/><path class="qshape" fill="#FF7E7E" stroke="#2D2D2D" d="M331.421 717.474H367.21V739.5790000000001H331.421z"/></g><g fill="#FFEBA2" stroke="#2D2D2D"><path d="M290.368 746.947H328.263V763.789H290.368z"/><path d="M510.368 744.842H527.21V766.947H510.368z"/><path d="M693.526 769.053H730.3679999999999V792.211H693.526z"/></g></svg>