<svg height="768" width="1484" xmlns="http://www.w3.org/2000/svg"><g fill="#ffeba2" stroke="#2d2d2d"><path d="m394 104h115v43h-115z"/><path d="m1132 656h72v41h-72z"/><path d="m1017 110h171v34h-171z"/><path d="m1217 103h174v43h-174z"/><path d="m1009 165h434v34h-434z"/><path d="m22 200h122v29h-122z"/><path d="m278 200h259v34h-259z"/><path d="m758 197h83v38h-83z"/><path d="m709 349h71v38h-71z"/><path d="m844 349h143v40h-143z"/><path d="m679 402h177v90h-177z"/><path d="m811 512h456v33h-456z"/><path d="m1321 514h82v29h-82z"/></g></svg>