<svg height="768" width="1484" xmlns="http://www.w3.org/2000/svg"><path fill="#FFEBA2" stroke="#2D2D2D" d="M394 104H509V147H394z"/><path fill="#FFEBA2" stroke="#2D2D2D" d="M1132 656H1204V697H1132z"/><path fill="#FFEBA2" stroke="#2D2D2D" d="M1017 110H1188V144H1017z"/><path fill="#FFEBA2" stroke="#2D2D2D" d="M1217 103H1391V146H1217z"/><path fill="#FFEBA2" stroke="#2D2D2D" d="M1009 165H1443V199H1009z"/><path fill="#FFEBA2" stroke="#2D2D2D" d="M22 200H144V229H22z"/><path fill="#FFEBA2" stroke="#2D2D2D" d="M278 200H537V234H278z"/><path fill="#FFEBA2" stroke="#2D2D2D" d="M758 197H841V235H758z"/><g fill="#FFEBA2" stroke="#2D2D2D"><path d="M709 349H780V387H709z"/><path d="M844 349H987V389H844z"/><path d="M679 402H856V492H679z"/></g><g class="qshape"><path class="qshape" fill="#FF7E7E" stroke="#2D2D2D" d="M811 512H1267V545H811z"/><path class="qshape" fill="#FF7E7E" stroke="#2D2D2D" d="M1321 514H1403V543H1321z"/></g></svg>