<svg height="1597" width="1068" xmlns="http://www.w3.org/2000/svg"><path fill="#FFEBA2" stroke="#2D2D2D" d="M165.044 174.304H367.653V224.739H165.044z"/><path fill="#FFEBA2" stroke="#2D2D2D" d="M476.348 177.783H592V220.392H476.348z"/><path fill="#FFEBA2" stroke="#2D2D2D" d="M149.391 396.913H381.565V442.13H149.391z"/><path fill="#FFEBA2" stroke="#2D2D2D" d="M445.044 395.174H625.044V442.131H445.044z"/><path fill="#FFEBA2" stroke="#2D2D2D" d="M157.217 612.565H390.26V666.4780000000001H157.217z"/><path fill="#FFEBA2" stroke="#2D2D2D" d="M456.348 613.435H612.87V664.7389999999999H456.348z"/><path fill="#FFEBA2" stroke="#2D2D2D" d="M428.522 796.913H636.348V867.348H428.522z"/><path class="qshape" fill="#FF7E7E" stroke="#2D2D2D" d="M429.391 1043H628.521V1088.217H429.391z"/><path fill="#FFEBA2" stroke="#2D2D2D" d="M125.044 1263.87H412.87V1312.5659999999998H125.044z"/><path fill="#FFEBA2" stroke="#2D2D2D" d="M448.522 1264.739H613.739V1305.609H448.522z"/><path fill="#FFEBA2" stroke="#2D2D2D" d="M165.044 1456.913H371.131V1504.739H165.044z"/><path fill="#FFEBA2" stroke="#2D2D2D" d="M452 1447.348H614.609V1526.478H452z"/></svg>