<svg height="1116" width="967" xmlns="http://www.w3.org/2000/svg"><path fill="#FFEBA2" stroke="#2D2D2D" d="M368.849 165.132H650.924V203.811H368.849z"/><path fill="#FFEBA2" stroke="#2D2D2D" d="M364.132 252.868H650.924V290.604H364.132z"/><path fill="#FFEBA2" stroke="#2D2D2D" d="M401.868 425.509H607.528V460.415H401.868z"/><path fill="#FFEBA2" stroke="#2D2D2D" d="M243.377 508.528H392.43399999999997V635.886H243.377z"/><path fill="#FFEBA2" stroke="#2D2D2D" d="M414.132 533.057H783V607.585H414.132z"/><path fill="#FFEBA2" stroke="#2D2D2D" d="M187.717 717.019H265.07500000000005V761.359H187.717z"/><path fill="#FFEBA2" stroke="#2D2D2D" d="M526.396 761.359H628.2829999999999V807.585H526.396z"/><path fill="#FFEBA2" stroke="#2D2D2D" d="M228.283 813.245H298.094V863.245H228.283z"/><path fill="#FFEBA2" stroke="#2D2D2D" d="M321.679 823.623H576.396V863.2460000000001H321.679z"/><path fill="#FFEBA2" stroke="#2D2D2D" d="M190.547 900.038H299.981V946.264H190.547z"/><path fill="#FFEBA2" stroke="#2D2D2D" d="M235.83 952.868H306.58500000000004V1009.4720000000001H235.83z"/><path fill="#FFEBA2" stroke="#2D2D2D" d="M334.887 955.698H508.472V1012.302H334.887z"/><path fill="#FFEBA2" stroke="#2D2D2D" d="M166.962 1017.962H195.26399999999998V1063.245H166.962z"/><path fill="#FFEBA2" stroke="#2D2D2D" d="M317.906 1017.962H344.321V1064.188H317.906z"/><path fill="#FFEBA2" stroke="#2D2D2D" d="M656.585 1068.906H853.755V1112.302H656.585z"/></svg>