<svg height="1116" width="967" xmlns="http://www.w3.org/2000/svg"><g stroke="#2d2d2d"><g fill="#ffeba2"><path d="m368.84903 165.13212h282.07548v38.67925h-282.07548z"/><path d="m364.13204 252.86797h286.79246v37.73585h-286.79246z"/><path d="m410.35846 339.66043h166.03774v31.13208h-166.03774z"/><path d="m401.86789 425.50948h205.66038v34.90566h-205.66038z"/><path d="m243.37732 508.52836h149.05661v127.35849h-149.05661z"/><path d="m414.13205 533.05666h368.86794v74.5283h-368.86794z"/><path d="m187.71694 717.01893h77.35849v44.33962h-77.35849z"/><path d="m526.3962 761.35855h101.8868v46.22642h-101.8868z"/><path d="m228.28298 813.24535h69.81132v50h-69.81132z"/><path d="m321.67921 823.62271h254.71699v39.62264h-254.71699z"/><path d="m190.54713 900.0378h109.43397v46.22642h-109.43397z"/><path d="m235.83015 952.86799h70.75472v56.60378h-70.75472z"/><path d="m334.88676 955.69818h173.58491v56.60378h-173.58491z"/><path d="m166.96223 1017.96233h28.30189v45.28302h-28.30189z"/><path d="m317.90563 1017.96233h26.4151v46.22642h-26.4151z"/></g><path d="m656.58488 1068.90573h197.16982v43.39623h-197.16982z" fill="#ff7e7e"/></g></svg>