<svg height="761" width="1464" xmlns="http://www.w3.org/2000/svg"><g stroke="#2d2d2d"><g fill="#ffeba2"><path d="m651.84156 120.18814h121.78218v33.66337h-121.78218z"/><path d="m807.28711 121.17823h121.78218v30.69307h-121.78218z"/><path d="m179.56432 242.96042h88.11881v30.69307h-88.11881z"/><path d="m704.31681 240.98022h63.36634v33.66337h-63.36634z"/><path d="m551.84156 294.44556h119.80198v27.72277h-119.80198z"/><path d="m236.99007 345.93071h65.34654v33.66337h-65.34654z"/><path d="m581.54453 348.90101h62.37624v31.68317h-62.37624z"/><path d="m946.89107 238.00992h57.42574v34.65347h-57.42574z"/><path d="m1224.1188 245.93071h58.41584v26.73267h-58.41584z"/></g><path d="m1036.99008 293.45547h76.23763v35.64357h-76.23763z" fill="#ff7e7e"/><path d="m1208.27722 292.46537h28.71287v31.68317h-28.71287z" fill="#ff7e7e"/><path d="m974.61384 569.69309h123.76238v31.68317h-123.76238z" fill="#ffeba2"/><path d="m1319.16831 568.703h60.39604v31.68317h-60.39604z" fill="#ffeba2"/></g></svg>