<svg height="761" width="1464" xmlns="http://www.w3.org/2000/svg"><path fill="#FFEBA2" stroke="#2D2D2D" d="M651.842 120.188H773.624V153.851H651.842z"/><path fill="#FFEBA2" stroke="#2D2D2D" d="M807.287 121.178H929.0690000000001V151.871H807.287z"/><path fill="#FFEBA2" stroke="#2D2D2D" d="M179.564 242.96H267.683V273.653H179.564z"/><path fill="#FFEBA2" stroke="#2D2D2D" d="M704.317 240.98H767.683V274.643H704.317z"/><path fill="#FFEBA2" stroke="#2D2D2D" d="M236.99 345.931H302.337V379.594H236.99z"/><path fill="#FFEBA2" stroke="#2D2D2D" d="M581.545 348.901H643.9209999999999V380.584H581.545z"/><g fill="#FFEBA2" stroke="#2D2D2D"><path d="M946.891 238.01H1004.317V272.663H946.891z"/><path d="M1224.119 245.931H1282.5349999999999V272.664H1224.119z"/></g><g fill="#FFEBA2" stroke="#2D2D2D"><path d="M1036.99 293.455H1113.228V329.099H1036.99z"/><path d="M1208.277 292.465H1236.99V324.14799999999997H1208.277z"/></g><g fill="#FFEBA2" stroke="#2D2D2D"><path d="M974.614 569.693H1098.376V601.376H974.614z"/><path d="M1319.168 568.703H1379.5639999999999V600.386H1319.168z"/></g></svg>