<svg height="827" width="865" xmlns="http://www.w3.org/2000/svg"><g fill="#ffeba2" stroke="#2d2d2d"><path d="m379.086 175.15056h66.66667v18.27957h-66.66667z"/><path d="m651.12902 170.84948h36.55914v23.65591h-36.55914z"/><path d="m78.54841 241.54841h29.03226v19.35484h-29.03226z"/><path d="m675.32262 398.80647h16.12903v21.77419h-16.12903z"/><path d="m283.38712 504.45164h44.35484v17.74194h-44.35484z"/><path d="m339.83874 532.67745h9.67742v15.32258h-9.67742z"/><path d="m663.22584 510.90325h32.25807v17.74194h-32.25807z"/><path d="m695.48391 539.12906h37.09678v22.58065h-37.09678z"/><path d="m722.90326 643.16132h19.35484v16.12903h-19.35484z"/><path d="m688.22584 699.61293h33.87097v16.12903h-33.87097z"/><path d="m280.96777 703.64519h33.87097v19.35484h-33.87097z"/><path d="m128.54841 780.2581h37.09678v14.51613h-37.09678z"/><path d="m150.3226 803.64519h42.74194v17.74194h-42.74194z"/></g></svg>