<svg height="827" width="865" xmlns="http://www.w3.org/2000/svg"><path fill="#FFEBA2" stroke="#2D2D2D" d="M379.086 175.151H445.75300000000004V193.431H379.086z"/><path fill="#FFEBA2" stroke="#2D2D2D" d="M651.129 170.849H687.688V194.505H651.129z"/><path class="qshape" fill="#FF7E7E" stroke="#2D2D2D" d="M78.548 241.548H107.58V260.903H78.548z"/><path fill="#FFEBA2" stroke="#2D2D2D" d="M675.323 398.806H691.452V420.58H675.323z"/><path fill="#FFEBA2" stroke="#2D2D2D" d="M283.387 504.452H327.742V522.194H283.387z"/><path fill="#FFEBA2" stroke="#2D2D2D" d="M339.839 532.677H349.516V548H339.839z"/><path fill="#FFEBA2" stroke="#2D2D2D" d="M663.226 510.903H695.484V528.645H663.226z"/><path fill="#FFEBA2" stroke="#2D2D2D" d="M695.484 539.129H732.581V561.71H695.484z"/><path fill="#FFEBA2" stroke="#2D2D2D" d="M722.903 643.161H742.258V659.29H722.903z"/><path fill="#FFEBA2" stroke="#2D2D2D" d="M688.226 699.613H722.097V715.7420000000001H688.226z"/><path fill="#FFEBA2" stroke="#2D2D2D" d="M280.968 703.645H314.839V723H280.968z"/><path fill="#FFEBA2" stroke="#2D2D2D" d="M128.548 780.258H165.645V794.774H128.548z"/><path fill="#FFEBA2" stroke="#2D2D2D" d="M150.323 803.645H193.065V821.387H150.323z"/></svg>