<svg xmlns="http://www.w3.org/2000/svg" width="932" height="470"><path stroke="#2D2D2D" fill="#FFEBA2" d="M200.773 61.933H344.47V82.941H200.773z"/><path stroke="#2D2D2D" fill="#FFEBA2" d="M185.647 98.908H293.21V119.076H185.647z"/><path stroke="#2D2D2D" fill="#FFEBA2" d="M187.328 134.202H239.429V157.731H187.328z"/><path stroke="#2D2D2D" fill="#FFEBA2" d="M157.916 170.336H197.412V195.54600000000002H157.916z"/><path stroke="#2D2D2D" fill="#FFEBA2" d="M119.261 207.311H177.244V234.202H119.261z"/><path stroke="#2D2D2D" fill="#FFEBA2" d="M582.286 172.017H621.7819999999999V194.706H582.286z"/><path stroke="#2D2D2D" fill="#FFEBA2" d="M675.563 169.496H801.6129999999999V193.025H675.563z"/><path stroke="#2D2D2D" fill="#FFEBA2" d="M582.286 208.151H652.8739999999999V231.68H582.286z"/><path stroke="#2D2D2D" fill="#FFEBA2" d="M728.504 207.311H909.176V230.84H728.504z"/><path stroke="#2D2D2D" fill="#FFEBA2" d="M453.714 244.286H615.899V267.815H453.714z"/><path stroke="#2D2D2D" fill="#FFEBA2" d="M544.05 279.58H706.2349999999999V303.109H544.05z"/><path stroke="#2D2D2D" fill="#FFEBA2" d="M527.244 354.37H714.639V377.899H527.244z"/><path stroke="#2D2D2D" fill="#FFEBA2" d="M454.134 392.185H635.647V415.714H454.134z"/><path stroke="#2D2D2D" fill="#FFEBA2" d="M672.202 426.639H857.076V450.168H672.202z"/></svg>