<svg height="470" width="932" xmlns="http://www.w3.org/2000/svg"><g fill="#ffeba2" stroke="#2d2d2d"><path d="m200.77315 61.93278h143.69748v21.0084h-143.69748z"/><path d="m185.6471 98.90757h107.56303v20.16807h-107.56303z"/><path d="m187.32778 134.20169h52.10084v23.52941h-52.10084z"/><path d="m157.91601 170.33615h39.4958v25.21009h-39.4958z"/><path d="m119.26055 207.31094h57.9832v26.89076h-57.9832z"/><path d="m582.28577 172.01682h39.4958v22.68908h-39.4958z"/><path d="m675.56305 169.49581h126.05039v23.52941h-126.05039z"/><path d="m582.28575 208.15126h70.58821v23.52941h-70.58821z"/><path d="m728.50418 207.31092h180.67225v23.52941h-180.67225z"/><path d="m453.71429 244.28572h162.18484v23.52941h-162.18484z"/><path d="m544.05044 279.57983h162.18484v23.52941h-162.18484z"/><path d="m470.94122 317.39495h107.563v23.52941h-107.563z"/><path d="m527.24374 354.36975h187.39493v23.52941h-187.39493z"/><path d="m454.13444 392.18488h181.51255v23.52941h-181.51255z"/><path d="m672.20172 426.63866h184.8739v23.52941h-184.8739z"/></g></svg>