<svg height="893" width="1065" xmlns="http://www.w3.org/2000/svg"><g fill="#ffeba2" stroke="#2d2d2d"><path d="m603.10342 421.65517h389.65516v33.62069h-389.65516z"/><path d="m593.62066 496.65517h172.41379v32.75862h-172.41379z"/><path d="m491.03445 533.72413h171.55172v31.89655h-171.55172z"/><path d="m663.44824 570.79309h174.13793v31.89655h-174.13793z"/><path d="m277.24135 643.20689h264.65517v32.75862h-264.65517z"/><path d="m271.20687 712.1724h268.96551v34.48276h-268.96551z"/><path d="m739.3103 745.79309c0-.86206 0 32.75861 0 31.89655s-731.89653 6.03448-732.41375 5.93103c-.51722-.10345-.34485 34.58624-.86207 34.48279s91.03447.96552 90.51725.86206c-.51722-.10345-.34485-33.51727-.86208-33.62067-.51723-.10339 956.55119-9.37952 959.48271-3.4483 2.93152 5.93121-1.20691-36.10345-1.72412-36.20691-.51721-.10345-314.13794.10345-314.13794.10345z" stroke-width="3"/></g></svg>