<svg height="893" width="1065" xmlns="http://www.w3.org/2000/svg"><path fill="#FFEBA2" stroke="#2D2D2D" d="M603.103 421.655H992.7579999999999V455.27599999999995H603.103z"/><path fill="#FFEBA2" stroke="#2D2D2D" d="M593.621 496.655H766.035V529.414H593.621z"/><path fill="#FFEBA2" stroke="#2D2D2D" d="M491.034 533.724H662.586V565.6210000000001H491.034z"/><path fill="#FFEBA2" stroke="#2D2D2D" d="M663.448 570.793H837.586V602.69H663.448z"/><path fill="#FFEBA2" stroke="#2D2D2D" d="M277.241 643.207H541.896V675.966H277.241z"/><path fill="#FFEBA2" stroke="#2D2D2D" d="M271.207 712.172H540.173V746.655H271.207z"/><path d="M739.31 745.793v31.897c0-.862-731.896 6.034-732.413 5.93-.518-.103-.345 34.587-.863 34.483-.517-.103 91.035.966 90.518.863-.517-.104-.345-33.518-.862-33.621-.518-.104 956.55-9.38 959.482-3.448 2.932 5.93-1.207-36.104-1.724-36.207-.517-.104-314.138.103-314.138.103z" fill="#FFEBA2" stroke="#2D2D2D" stroke-width="3"/><path fill="#FFEBA2" stroke="#2D2D2D" stroke-dasharray="null" stroke-linecap="null" stroke-linejoin="null" d="M16.034 855.276H511.724V888.8969999999999H16.034z"/></svg>