<svg height="736" width="1238" xmlns="http://www.w3.org/2000/svg"><path fill="#FFEBA2" stroke="#2D2D2D" d="M89.619 125.905H214.381V159.238H89.619z"/><path fill="#FFEBA2" stroke="#2D2D2D" d="M1027.714 245.905H1145.809V272.572H1027.714z"/><g class="qshape"><path class="qshape" fill="#FF7E7E" stroke="#2D2D2D" d="M108.667 240.19H194.381V274.476H108.667z"/><path class="qshape" fill="#FF7E7E" stroke="#2D2D2D" d="M285.809 244H517.238V267.81H285.809z"/><path class="qshape" fill="#FF7E7E" stroke="#2D2D2D" d="M549.619 235.429H578.19V271.619H549.619z"/></g><path fill="#FFEBA2" stroke="#2D2D2D" d="M141.048 284.952H224.858V313.523H141.048z"/><path fill="#FFEBA2" stroke="#2D2D2D" d="M255.333 287.81H338.19V313.524H255.333z"/><path fill="#FFEBA2" stroke="#2D2D2D" d="M962.952 289.714H1041.047V321.143H962.952z"/><path fill="#FFEBA2" stroke="#2D2D2D" d="M105.809 452.571H283.904V483.047H105.809z"/><path fill="#FFEBA2" stroke="#2D2D2D" d="M380.095 453.524H511.524V484H380.095z"/><g fill="#FFEBA2" stroke="#2D2D2D" stroke-dasharray="null" stroke-linecap="null" stroke-linejoin="null"><path d="M136.286 501.143H225.81V534.476H136.286z"/><path d="M257.238 500.19H349.619V529.7139999999999H257.238z"/></g><path fill="#FFEBA2" stroke="#2D2D2D" stroke-dasharray="null" stroke-linecap="null" stroke-linejoin="null" d="M165.809 688.762H249.619V720.1909999999999H165.809z"/><g fill="#FFEBA2" stroke="#2D2D2D" stroke-dasharray="null" stroke-linecap="null" stroke-linejoin="null"><path d="M317.238 639.238H377.238V672.571H317.238z"/><path d="M469.619 644H614.3810000000001V671.619H469.619z"/></g></svg>