<svg height="783" width="830" xmlns="http://www.w3.org/2000/svg"><g stroke="#2d2d2d"><g fill="#ffeba2"><path d="m443.46935 378.22445h15.30612v25.5102h-15.30612z"/><path d="m150.61222 407.81628h44.89796v27.55102h-44.89796z"/><path d="m5.71426 481.28567h135.71428v23.46939h-135.71428z"/><path d="m388.36731 481.28567h79.59183v24.4898h-79.59183z"/><path d="m83.26528 515.97955h176.53061v24.4898h-176.53061z"/><path d="m289.38772 516.99996h94.89796v26.53061h-94.89796z"/><path d="m474.08159 551.69383h113.2653v26.53061h-113.2653z"/><path d="m49.59181 582.30608h47.95918v30.61224h-47.95918z"/><path d="m424.0816 621.08158h47.95918v25.5102h-47.95918z"/><path d="m281.22446 684.34689h68.36734v24.4898h-68.36734z"/></g><path d="m26.12242 752.71423h95.91836v26.53061h-95.91836z" fill="#ff7e7e"/><path d="m389.38772 716.99995h42.85715v27.55102h-42.85715z" fill="#ff7e7e"/></g></svg>