<svg height="878" width="1367" xmlns="http://www.w3.org/2000/svg"><g stroke="#2d2d2d"><g fill="#ffeba2"><path d="M212.546 123.136h90.909v34.091h-90.91zM558 181.091h86.364v29.545H558zm-144.318 60.227h59.09v37.5h-59.09zm140.909 2.273h54.545v30.682h-54.545zm643.182-4.546h126.136v35.228h-126.136zm-1015.91 65.91h62.5v35.227h-62.5zM833 303.818h120.455v34.091H833zM214.818 359.5h29.546v27.273h-29.546zm188.637-1.136h80.681v30.681h-80.681zm63.636 100h100v30.681h-100zm-2.273 192.045h60.228v25h-60.228zm77.273-1.136h82.955V672H542.09z"/></g><path d="M201.182 847H283v26.136h-81.818zm100-2.273h77.273V872h-77.273z" fill="#ff7e7e"/></g></svg>