<svg height="878" width="1367" xmlns="http://www.w3.org/2000/svg"><path fill="#FFEBA2" stroke="#2D2D2D" d="M212.546 123.136H303.455V157.227H212.546z"/><path fill="#FFEBA2" stroke="#2D2D2D" d="M413.682 241.318H472.773V278.818H413.682z"/><path fill="#FFEBA2" stroke="#2D2D2D" d="M554.591 243.591H609.136V274.273H554.591z"/><path fill="#FFEBA2" stroke="#2D2D2D" d="M1197.773 239.045H1323.9089999999999V274.272H1197.773z"/><path fill="#FFEBA2" stroke="#2D2D2D" d="M181.864 304.955H244.364V340.18199999999996H181.864z"/><path fill="#FFEBA2" stroke="#2D2D2D" d="M833 303.818H953.455V337.909H833z"/><path fill="#FFEBA2" stroke="#2D2D2D" d="M214.818 359.5H244.363V386.773H214.818z"/><path fill="#FFEBA2" stroke="#2D2D2D" d="M403.455 358.364H484.137V389.046H403.455z"/><path fill="#FFEBA2" stroke="#2D2D2D" d="M467.091 458.364H567.091V489.046H467.091z"/><g fill="#FFEBA2" stroke="#2D2D2D"><path d="M464.818 650.409H525.045V675.409H464.818z"/><path d="M542.091 649.273H625.046V672H542.091z"/></g><g fill="#FFEBA2" stroke="#2D2D2D"><path d="M201.182 847H283V873.136H201.182z"/><path d="M301.182 844.727H378.45500000000004V872H301.182z"/></g></svg>