<svg height="878" width="1367" xmlns="http://www.w3.org/2000/svg"><g fill="#ffeba2" stroke="#2d2d2d"><path d="m212.54551 123.13633h90.90909v34.09091h-90.90909z"/><path d="m558.00006 181.09088h86.36364v29.54546h-86.36364z"/><path d="m1197.77281 239.04542h126.13637v35.22727h-126.13637z"/><path d="m181.86369 304.95452h62.5v35.22727h-62.5z"/><path d="m833.00007 303.81815h120.45455v34.09091h-120.45455z"/><path d="m214.81823 359.49997h29.54546v27.27273h-29.54546z"/><path d="m403.4546 358.36361h80.68182v30.68182h-80.68182z"/><path d="m467.09097 458.36361h100v30.68182h-100z"/><path d="m464.81824 650.40907h60.22727v25h-60.22727z"/><path d="m542.09097 649.27271h82.95455v22.72727h-82.95455z"/><path d="m201.18187 846.99999h81.81818v26.13636h-81.81818z"/><path d="m301.18187 844.72726h77.27273v27.27273h-77.27273z"/></g></svg>