<svg height="926" width="958" xmlns="http://www.w3.org/2000/svg"><path fill="#FFEBA2" stroke="#2D2D2D" d="M310.439 38.145H650.725V100.313H310.439z"/><path fill="#FFEBA2" stroke="#2D2D2D" d="M741.25 112.309H951.748V181.02100000000002H741.25z"/><path fill="#FFEBA2" stroke="#2D2D2D" d="M231.911 185.384H412.961V245.36999999999998H231.911z"/><path fill="#FFEBA2" stroke="#2D2D2D" d="M727.072 185.384H926.663V251.914H727.072z"/><path fill="#FFEBA2" stroke="#2D2D2D" d="M378.06 250.823H661.6320000000001V310.809H378.06z"/><path fill="#FFEBA2" stroke="#2D2D2D" stroke-dasharray="null" stroke-linecap="null" stroke-linejoin="null" d="M374.788 312.991H658.36V375.159H374.788z"/><path fill="#FFEBA2" stroke="#2D2D2D" stroke-dasharray="null" stroke-linecap="null" stroke-linejoin="null" d="M357.337 377.34H594.01V439.508H357.337z"/><path fill="#FFEBA2" stroke="#2D2D2D" stroke-dasharray="null" stroke-linecap="null" stroke-linejoin="null" d="M285.354 436.236H519.846V492.95H285.354z"/><path fill="#FFEBA2" stroke="#2D2D2D" stroke-dasharray="null" stroke-linecap="null" stroke-linejoin="null" d="M297.351 496.222H556.928V550.755H297.351z"/><path fill="#FFEBA2" stroke="#2D2D2D" stroke-dasharray="null" stroke-linecap="null" stroke-linejoin="null" d="M322.436 555.118H554.747V609.6510000000001H322.436z"/><path fill="#FFEBA2" stroke="#2D2D2D" stroke-dasharray="null" stroke-linecap="null" stroke-linejoin="null" d="M299.532 614.014H548.203V670.7280000000001H299.532z"/><path fill="#FFEBA2" stroke="#2D2D2D" stroke-dasharray="null" stroke-linecap="null" stroke-linejoin="null" d="M342.068 674H566.7439999999999V728.533H342.068z"/><path fill="#FFEBA2" stroke="#2D2D2D" stroke-dasharray="null" stroke-linecap="null" stroke-linejoin="null" d="M337.705 735.077H587.466V788.519H337.705z"/><path fill="#FFEBA2" stroke="#2D2D2D" stroke-dasharray="null" stroke-linecap="null" stroke-linejoin="null" d="M274.447 795.063H574.379V847.415H274.447z"/><path fill="#FFEBA2" stroke="#2D2D2D" stroke-dasharray="null" stroke-linecap="null" stroke-linejoin="null" d="M279.9 860.503H589.6479999999999V918.308H279.9z"/></svg>