<svg xmlns="http://www.w3.org/2000/svg" width="12" height="12" viewBox="0 0 21 21"><path fill="#3A934A" fill-rule="evenodd" d="M10.5 21C4.701 21 0 16.299 0 10.5S4.701 0 10.5 0 21 4.701 21 10.5 16.299 21 10.5 21zm2.153-10.696c.193 1.073-.383 2.136-1.368 2.528l1.475 3.976c2.839-1.127 4.496-4.188 3.942-7.28-.554-3.093-3.162-5.336-6.202-5.336S4.852 6.435 4.298 9.528C3.744 12.62 5.4 15.68 8.24 16.808l1.475-3.976c-.985-.392-1.56-1.455-1.368-2.528C8.539 9.23 9.444 8.45 10.5 8.45s1.961.779 2.153 1.853z"/></svg>